<?xml version="1.0" standalone="no"?><!DOCTYPE svg PUBLIC "-//W3C//DTD SVG 1.1//EN" "http://www.w3.org/Graphics/SVG/1.1/DTD/svg11.dtd"><svg t="1637561935094" class="icon" viewBox="0 0 1024 1024" version="1.1" xmlns="http://www.w3.org/2000/svg" p-id="3128" xmlns:xlink="http://www.w3.org/1999/xlink" width="64" height="64"><defs><style type="text/css"></style></defs><path d="M88 453a32 32 0 0 1-18.68-58l424-304a32 32 0 1 1 37.3 52l-424 304A31.93 31.93 0 0 1 88 453z" fill="#b6bbb4" p-id="3129"></path><path d="M936 453a31.86 31.86 0 0 1-18.62-6l-424-304a32 32 0 0 1 37.3-52l424 304A32 32 0 0 1 936 453zM208 939a32 32 0 0 1-32-32V341a32 32 0 0 1 64 0v566a32 32 0 0 1-32 32z" fill="#b6bbb4" p-id="3130"></path><path d="M816 939a32 32 0 0 1-32-32V341a32 32 0 0 1 64 0v566a32 32 0 0 1-32 32zM395 939H208a32 32 0 0 1 0-64h187a32 32 0 0 1 0 64z" fill="#b6bbb4" p-id="3131"></path><path d="M816 939H629a32 32 0 0 1 0-64h187a32 32 0 0 1 0 64zM395 939a32 32 0 0 1-32-32V600a32 32 0 0 1 64 0v307a32 32 0 0 1-32 32z" fill="#b6bbb4" p-id="3132"></path><path d="M629 939a32 32 0 0 1-32-32V600a32 32 0 0 1 64 0v307a32 32 0 0 1-32 32z" fill="#b6bbb4" p-id="3133"></path><path d="M629 632H395a32 32 0 0 1 0-64h234a32 32 0 0 1 0 64z" fill="#b6bbb4" p-id="3134"></path></svg>